<svg xmlns="http://www.w3.org/2000/svg" width="16" height="16" viewBox="0 0 16 16">
  <path fill-rule="evenodd" d="M15.5000141,16 L0.499985889,16 C0.22380267,16 0,15.7761417 0,15.4999594 L0,0.500040569 C0,0.223858325 0.22380267,0 0.499985889,0 L15.5000141,0 C15.7761973,0 16,0.223858325 16,0.500040569 L16,15.4999594 C16,15.7744653 15.7789067,15.997285 15.5000141,16 Z M9.37498942,11.8749899 C9.37498942,12.6343923 8.75940507,13.2499744 8,13.2499744 C7.24059493,13.2499744 6.62501058,12.6343923 6.62501058,11.8749899 C6.62501058,11.1155875 7.24059493,10.4999488 8,10.4999488 C8.75940507,10.4999488 9.37498942,11.1155875 9.37498942,11.8749899 Z M5.49995767,7.99839134 C5.49995767,8.75773729 4.88437332,9.37331946 4.12496825,9.37331946 C3.36561962,9.37331946 2.74997883,8.75773729 2.74997883,7.99839134 C2.74997883,7.23898894 3.36561962,6.62335033 4.12496825,6.62335033 C4.88437332,6.62335033 5.49995767,7.23898894 5.49995767,7.99839134 Z M9.37498942,7.99839134 C9.37498942,8.75773729 8.75940507,9.37331946 8,9.37331946 C7.24059493,9.37331946 6.62501058,8.75773729 6.62501058,7.99839134 C6.62501058,7.23898894 7.24059493,6.62335033 8,6.62335033 C8.75940507,6.62335033 9.37498942,7.23898894 9.37498942,7.99839134 Z M13.2500212,7.99839134 C13.2500212,8.75773729 12.6344368,9.37331946 11.8750318,9.37331946 C11.1156267,9.37331946 10.4999859,8.75773729 10.4999859,7.99839134 C10.4999859,7.23898894 11.1156267,6.62335033 11.8750318,6.62335033 C12.6344368,6.62335033 13.2500212,7.23898894 13.2500212,7.99839134 Z M9.37498942,4.12501014 C9.37498942,4.88441254 8.75940507,5.49999471 8,5.49999471 C7.24059493,5.49999471 6.62501058,4.88441254 6.62501058,4.12501014 C6.62501058,3.36560775 7.24059493,2.75002558 8,2.75002558 C8.75940507,2.75002558 9.37498942,3.36560775 9.37498942,4.12501014 Z"/>
</svg>
